<svg width="128" height="122" viewBox="0 0 128 122" fill="none" xmlns="http://www.w3.org/2000/svg">
<g id="Logo" clip-path="url(#clip0_13_54)">
<path id="Vector" d="M0.215 108.143V107.098C0.12 107.083 0.06 107.073 0 107.068L0.215 108.143Z" fill="white"/>
<path id="Vector_2" d="M127.71 109.558C127.685 109.513 127.66 109.468 127.63 109.423C127.44 108.783 127.155 108.188 126.765 107.648C125.545 105.943 123.86 104.883 121.88 104.328C120.21 103.863 118.505 103.513 116.815 103.123C114.175 102.518 111.535 101.918 108.895 101.323C106.82 100.853 104.74 100.393 102.66 99.9326C100.785 99.5176 98.905 99.1126 97.03 98.6876C96.575 98.5826 96.105 98.4976 95.715 98.1226C95.875 98.0626 96.005 98.0076 96.14 97.9726C96.6 97.8576 97.07 97.7676 97.525 97.6326C101.225 96.5326 104.925 95.4276 108.63 94.3276C109.68 94.0176 110.735 93.7226 111.785 93.4226L112.305 93.2776C112.595 93.1926 112.885 93.1026 113.175 93.0176C113.465 92.9326 113.755 92.8526 114.045 92.7676C114.285 92.6926 114.53 92.6226 114.77 92.5476C115.07 92.4576 115.365 92.3676 115.665 92.2726C115.87 92.2176 116.08 92.1626 116.285 92.1076C116.985 91.8876 117.685 91.6676 118.385 91.4426C119.18 91.1426 119.975 90.8426 120.77 90.5376C121.495 90.0976 122.26 89.7176 122.93 89.2126C124.26 88.2176 125.2 86.9326 125.545 85.2626C125.75 84.2676 125.725 83.2776 125.43 82.3126C125.16 81.4276 124.86 80.5426 124.485 79.6926C123.435 77.3026 121.575 75.9526 119.005 75.5476C117.645 75.3326 116.32 75.5026 115.015 75.8826C113.31 76.3826 111.62 76.9176 109.92 77.4326C106.205 78.5526 102.485 79.6626 98.77 80.7876C95.215 81.8626 91.655 82.9326 88.1 84.0226C87.53 84.1976 86.985 84.4526 86.43 84.6676C86.325 84.6026 86.215 84.5426 86.11 84.4776C87.055 83.6776 88.005 82.8776 88.95 82.0726C90.73 80.5576 92.515 79.0376 94.295 77.5226C95.995 76.0726 97.695 74.6176 99.395 73.1676C99.455 73.1126 99.53 73.0776 99.6 73.0326C100.015 72.6626 100.425 72.2926 100.84 71.9276C101.035 71.7626 101.225 71.5926 101.42 71.4276L101.695 71.1926C102.11 70.8426 102.525 70.4976 102.945 70.1476C103.025 70.0826 103.11 70.0126 103.19 69.9476C103.615 69.5826 104.035 69.2126 104.46 68.8476C104.51 68.8076 104.555 68.7626 104.605 68.7226C104.96 68.4076 105.31 68.0926 105.67 67.7776C106.665 66.9026 107.665 66.0326 108.665 65.1626C108.835 65.0126 109.02 64.8826 109.195 64.7476C109.4 64.5676 109.6 64.3876 109.805 64.2126C110.29 63.6726 110.775 63.1376 111.265 62.5976C111.345 62.4726 111.425 62.3476 111.505 62.2226C111.77 61.6276 112.065 61.0426 112.075 60.3726C112.075 60.2076 112.075 60.0426 112.075 59.8726C112.07 59.6476 112.055 59.4176 112.055 59.1926C112.055 53.2926 112.055 47.3876 112.055 41.4876C112.055 40.6776 112.015 39.8776 111.845 39.0826C111.795 38.8376 111.86 38.5526 111.925 38.2976C112.045 37.7976 112.2 37.3076 112.345 36.8126C112.36 35.9976 112.37 35.1826 112.385 34.3676C112.325 34.1126 112.27 33.8576 112.21 33.6076C112.03 33.1526 111.855 32.6976 111.675 32.2426C111.515 31.9476 111.35 31.6576 111.19 31.3626C111.065 31.1526 110.935 30.9426 110.81 30.7376C110.56 30.3676 110.31 29.9926 110.065 29.6226C109.94 29.4576 109.815 29.2876 109.69 29.1226C109.195 28.5476 108.7 27.9726 108.18 27.3676C108.265 26.6226 108.17 25.8726 107.955 25.1426L107.67 24.5326C107.55 24.3376 107.43 24.1376 107.31 23.9426C107.19 23.8026 107.075 23.6576 106.955 23.5176C106.535 23.1826 106.145 22.8076 105.695 22.5276C104.36 21.6926 102.945 21.5976 101.49 22.2126C101.32 22.2826 101.145 22.3476 100.975 22.4126C100.94 22.4326 100.91 22.4576 100.875 22.4776C100.18 22.9076 99.575 23.4326 99.13 24.1276C98.58 24.9826 98.275 25.9126 98.335 26.9526C97.885 27.4676 97.435 27.9826 96.99 28.4926C96.755 28.7926 96.515 29.0876 96.28 29.3876C96.09 29.6676 95.895 29.9526 95.7 30.2376C95.655 30.1876 95.625 30.1576 95.6 30.1276C95.59 30.0376 95.585 29.9526 95.575 29.8626C95.595 28.9126 95.62 27.9576 95.64 27.0076C95.665 26.7326 95.455 26.3926 95.85 26.2176C96.225 25.7826 96.63 25.3676 96.96 24.9026C97.25 24.4976 97.37 24.0076 97.37 23.4976C97.37 21.5926 97.36 19.6926 97.37 17.7876C97.375 16.8926 97.005 16.1526 96.475 15.4726C96.285 15.3026 96.1 15.1276 95.91 14.9576C95.055 14.4976 94.145 14.3176 93.175 14.3826C92.625 14.4176 92.065 14.3626 91.51 14.3476C91.285 14.3626 91.06 14.3976 90.835 14.3976C88.035 14.3976 85.235 14.4076 82.435 14.3976C81.175 14.3976 80.055 14.6826 79.235 15.7226C79.225 15.7326 79.195 15.7326 79.155 15.7376C79.115 15.7226 79.045 15.7176 79.005 15.6826C78.885 15.5676 78.785 15.4376 78.67 15.3176C77.85 14.4976 77.07 13.6326 76.2 12.8676C74.45 11.3276 72.52 10.0476 70.44 8.99258C70.285 8.91258 70.155 8.78758 70.055 8.71258C70.165 8.20758 70.31 7.79258 70.345 7.36758C70.515 5.14758 69.665 3.35258 67.925 2.00758C65.99 0.512582 63.885 0.227582 61.645 1.32258C58.925 2.65258 57.535 5.68758 58.325 8.42758C58.375 8.59758 58.385 8.77758 58.41 8.94758C55.22 10.5676 52.53 12.7326 50.18 15.3376C50.1 15.3026 50.035 15.2876 49.99 15.2526C49.195 14.6126 48.285 14.3676 47.27 14.3876C46.045 14.4126 44.82 14.4026 43.6 14.4026C41.09 14.4026 38.58 14.3976 36.07 14.3926C35.425 14.3926 34.78 14.4276 34.19 14.7226C32.885 15.3676 32.185 16.4326 32.16 17.8876C32.13 19.6926 32.14 21.4976 32.155 23.3026C32.16 24.2076 32.48 25.0076 33.1 25.6676C33.325 25.9076 33.59 26.1026 33.865 26.3476C33.865 26.7926 33.855 27.2726 33.865 27.7476C33.88 28.4076 33.915 29.0726 33.94 29.7326C33.95 29.7876 33.96 29.8426 33.97 29.8976C33.97 30.0176 33.97 30.1326 33.97 30.2526C33.895 30.2526 33.82 30.2526 33.75 30.2526C33.02 29.3526 32.325 28.4226 31.555 27.5576C31.23 27.1926 31.05 26.8376 31.03 26.3576C30.915 23.6626 28.46 21.8676 26.21 21.8226C24.49 21.7876 23.155 22.6126 22.13 23.9526C21.47 24.8126 21.115 25.7926 21.18 26.8976L21.195 27.0326C21.235 27.3826 21.03 27.6076 20.815 27.8426C19.605 29.1876 18.565 30.6576 17.745 32.2676C16.98 33.7726 16.755 35.3776 17.025 37.0326C17.135 37.7176 17.4 38.3726 17.6 39.0676C17.545 39.7826 17.435 40.5476 17.435 41.3076C17.42 47.3826 17.425 53.4626 17.43 59.5376C17.43 61.0976 17.95 62.4676 19.11 63.5426C20.265 64.6126 21.425 65.6826 22.615 66.7126C25.515 69.2226 28.435 71.7076 31.345 74.2076C33.215 75.8126 35.08 77.4326 36.955 79.0326C38.835 80.6326 40.725 82.2126 42.61 83.8076C42.81 83.9776 43.02 84.1426 43.095 84.4326C42.785 84.5676 42.565 84.3876 42.32 84.2926C41.59 84.0076 40.875 83.6626 40.12 83.4726C38 82.9376 35.86 82.4526 33.725 81.9676C32.195 81.6176 30.66 81.2976 29.125 80.9626C28.97 80.9276 28.81 80.8926 28.655 80.8626C28.495 80.8226 28.335 80.7876 28.175 80.7476C26.34 80.3326 24.51 79.9126 22.675 79.4976C22.51 79.4626 22.34 79.4276 22.175 79.3926C22.14 79.3726 22.105 79.3476 22.065 79.3376C19.13 78.6576 16.195 77.9826 13.26 77.3076C11.7 76.9476 10.135 76.7176 8.53 76.9476C6.92 77.1776 5.53 77.8376 4.415 79.0276C3.42 80.0876 2.89 81.3676 2.655 82.7876C2.605 83.0426 2.555 83.3026 2.5 83.5576C2.325 84.2126 2.275 84.8776 2.365 85.5476C2.345 85.5826 2.335 85.6226 2.34 85.6626C2.32 85.6876 2.3 85.7126 2.275 85.7376C2.3 85.7576 2.325 85.7826 2.35 85.8026L2.375 85.7926C2.375 85.8726 2.36 85.9576 2.375 86.0376C2.65 88.1076 3.695 89.7076 5.375 90.9076C6.81 91.9376 8.435 92.4876 10.155 92.8526C13.445 93.5476 16.725 94.3126 20.005 95.0576C23.405 95.8276 26.805 96.6176 30.205 97.3876C31.21 97.6176 32.225 97.8076 33.235 98.0176C33.245 98.1026 33.26 98.1926 33.27 98.2776C32.565 98.5076 31.865 98.7476 31.155 98.9626C28.27 99.8376 25.39 100.703 22.505 101.568C19.935 102.338 17.365 103.093 14.795 103.863C12.185 104.643 9.57 105.408 6.98 106.233C4.49 107.028 2.345 108.313 1.065 110.723C0.920003 111.233 0.745003 111.738 0.630003 112.258C0.360003 113.443 0.610003 114.583 0.935003 115.718C0.990003 115.913 1.05 116.108 1.105 116.303L1.71 117.798L1.875 118.173C1.975 118.333 2.075 118.493 2.175 118.648C2.33 118.863 2.485 119.073 2.635 119.288C2.75 119.418 2.86 119.543 2.975 119.673C3.025 119.708 3.08 119.738 3.12 119.783C4.265 121.073 5.775 121.578 7.425 121.788C7.525 121.803 7.625 121.818 7.73 121.833C8.555 121.803 9.38 121.773 10.205 121.738C10.575 121.648 10.95 121.563 11.32 121.473C11.61 121.383 11.9 121.298 12.19 121.208L12.84 121.038C13.34 120.883 13.835 120.723 14.335 120.568L14.71 120.453L15.44 120.238C15.695 120.168 15.945 120.098 16.2 120.028L17.065 119.753C17.18 119.718 17.29 119.678 17.405 119.643C17.875 119.488 18.35 119.338 18.82 119.183L19.565 118.943C19.77 118.888 19.975 118.833 20.18 118.773L21.185 118.448C22.055 118.193 22.93 117.938 23.8 117.683C24 117.618 24.2 117.553 24.4 117.483C24.615 117.423 24.83 117.363 25.045 117.308C25.52 117.173 26 117.038 26.475 116.903C26.635 116.858 26.795 116.808 26.955 116.763C27.265 116.668 27.575 116.578 27.885 116.483L28.76 116.238C29.06 116.143 29.355 116.053 29.655 115.958C29.895 115.883 30.14 115.808 30.38 115.733C30.62 115.668 30.86 115.598 31.1 115.533C31.36 115.438 31.62 115.343 31.88 115.248C32.22 115.148 32.555 115.043 32.895 114.943C33.1 114.883 33.3 114.823 33.505 114.768C34.33 114.513 35.16 114.253 35.985 113.998C36.16 113.948 36.335 113.893 36.51 113.843C37.045 113.683 37.575 113.523 38.11 113.368C38.235 113.333 38.36 113.298 38.485 113.263C39.1 113.028 39.72 112.793 40.335 112.553C40.77 112.298 41.205 112.038 41.64 111.783L41.965 111.558C42.76 110.863 43.52 110.143 44.085 109.238C44.32 108.863 44.725 108.828 45.105 108.743C49.13 107.738 53.16 106.738 57.18 105.723C59.54 105.123 61.89 104.483 64.255 103.888C64.545 103.813 64.885 103.818 65.17 103.898C67.855 104.638 70.53 105.418 73.215 106.163C75.6 106.823 78 107.448 80.39 108.098C81.085 108.288 81.77 108.508 82.46 108.713L83.23 108.898C83.755 108.953 84.165 109.178 84.365 109.698C84.535 109.903 84.705 110.108 84.875 110.313C85.38 110.768 85.885 111.223 86.39 111.678C86.575 111.803 86.765 111.928 86.95 112.048C87.11 112.143 87.275 112.238 87.435 112.338C87.815 112.523 88.2 112.703 88.58 112.888L89.555 113.218C89.975 113.323 90.395 113.428 90.815 113.538C91.19 113.608 91.57 113.683 91.945 113.753C92.31 113.828 92.675 113.903 93.045 113.983C93.425 114.073 93.805 114.163 94.19 114.253C94.475 114.323 94.755 114.398 95.04 114.468L96.295 114.798C96.665 114.888 97.04 114.973 97.41 115.063C97.7 115.118 97.99 115.173 98.275 115.233C98.65 115.313 99.02 115.393 99.395 115.473L100.64 115.733C101.02 115.823 101.4 115.908 101.78 115.998C102.27 116.113 102.765 116.223 103.255 116.338C103.42 116.378 103.585 116.418 103.755 116.453C104.385 116.588 105.015 116.728 105.65 116.863C105.81 116.898 105.965 116.933 106.125 116.973C107.205 117.223 108.285 117.473 109.36 117.723C109.65 117.798 109.94 117.868 110.23 117.943C110.695 118.043 111.16 118.143 111.625 118.238L112.6 118.463C113.14 118.583 113.68 118.708 114.22 118.828C114.475 118.883 114.73 118.938 114.985 118.993C115.355 119.088 115.725 119.188 116.095 119.283C116.34 119.338 116.585 119.393 116.835 119.448C117.375 119.573 117.915 119.693 118.455 119.818C118.955 119.863 119.45 119.913 119.95 119.958C120.45 119.953 120.945 119.948 121.445 119.938C122.15 119.773 122.855 119.608 123.56 119.448C123.685 119.403 123.81 119.353 123.935 119.308C124.365 119.028 124.815 118.778 125.215 118.463C126.335 117.588 127.105 116.468 127.46 115.083C127.585 114.588 127.695 114.088 127.815 113.588C127.89 113.588 127.97 113.583 128.045 113.578V109.593H127.755L127.71 109.558ZM86.29 84.7826C86.24 84.7926 86.19 84.7976 86.145 84.8076C86.195 84.7976 86.245 84.7926 86.29 84.7826ZM109.045 37.0976C108.83 37.1376 108.615 37.2126 108.405 37.2176C107.35 37.2326 106.29 37.2326 105.235 37.2326C102.955 37.2326 100.67 37.2326 98.39 37.2326C97.98 37.2326 97.555 37.2876 97.16 36.9376C97.145 36.8026 97.13 36.6226 97.115 36.4626C97.19 36.3976 97.23 36.3326 97.28 36.3226C97.62 36.2426 97.96 36.1226 98.305 36.1126C99.55 36.0876 100.795 36.0376 102.035 36.1126C103.55 36.2026 105.055 36.0426 106.565 36.0976C107.29 36.1226 108.01 36.1576 108.735 36.1976C108.835 36.2026 108.93 36.2476 109.045 36.2776V37.1026V37.0976ZM103.84 29.2226C104.19 29.2726 104.295 29.5876 104.415 29.8276C105.11 31.2526 105.78 32.6926 106.455 34.1276C106.63 34.4976 106.61 34.8826 106.565 35.3326H105.13C104.855 35.1076 104.795 34.7726 104.74 34.4526C104.505 33.1126 104.285 31.7676 103.875 30.4676C103.765 30.1176 103.75 29.7376 103.69 29.3726C103.74 29.3226 103.795 29.2776 103.845 29.2276L103.84 29.2226ZM103.395 29.3826C103.485 29.9426 103.58 30.5026 103.67 31.0626C103.675 31.1226 103.685 31.1826 103.69 31.2426L103.715 31.2326C103.745 31.2526 103.775 31.2726 103.81 31.2926C103.78 31.2726 103.75 31.2526 103.72 31.2326C103.72 31.2776 103.73 31.3176 103.73 31.3626C103.83 32.3276 103.925 33.2926 104.02 34.2526C104.05 34.5776 104.08 34.9026 104.105 35.1926C103.285 35.8426 103.005 35.6476 102.33 35.1676C102.315 34.9976 102.225 34.7426 102.285 34.5276C102.565 33.4376 102.585 32.3226 102.71 31.2176C102.745 30.8926 102.775 30.5626 102.81 30.2376C102.81 30.1926 102.81 30.1526 102.815 30.1076C102.815 29.8576 102.815 29.6076 102.815 29.3576C102.825 29.1926 102.835 29.0276 102.845 28.8676L102.855 28.8776C102.93 28.8776 103.01 28.8776 103.085 28.8726L103.325 29.1276C103.35 29.2126 103.37 29.2976 103.395 29.3826ZM102.58 29.3526C102.38 30.1876 102.16 31.0226 101.98 31.8626C101.795 32.7276 101.66 33.6076 101.475 34.4726C101.415 34.7676 101.27 35.0426 101.17 35.3126C100.605 35.3326 100.11 35.4476 99.645 35.1326C99.555 34.7576 99.585 34.3976 99.75 34.0476C100.265 32.9676 100.765 31.8876 101.295 30.8176C101.57 30.2676 101.885 29.7376 102.185 29.1976C102.24 29.1776 102.295 29.1576 102.355 29.1376C102.395 29.1276 102.435 29.1276 102.475 29.1276C102.51 29.2026 102.545 29.2776 102.58 29.3576V29.3526ZM108.92 34.0726C109.095 34.4426 109.305 34.8226 108.96 35.3076C108.79 35.3476 108.56 35.4226 108.32 35.4476C108.015 35.4726 107.75 35.3626 107.585 35.0876C107.425 34.8226 107.255 34.5626 107.135 34.2776C106.38 32.5626 105.565 30.8776 104.62 29.2576C104.6 29.2226 104.595 29.1776 104.58 29.1426C104.55 29.0526 104.515 28.9626 104.485 28.8676C104.51 28.7826 104.54 28.6926 104.59 28.5226C104.865 28.7326 105.115 28.8776 105.31 29.0776C106.76 30.5626 108.025 32.1926 108.93 34.0776L108.92 34.0726ZM102.17 25.5476C102.78 25.0276 103.595 24.9626 104.22 25.4626C105.36 26.3726 105.195 27.7126 103.97 28.3276C103.73 28.4476 103.475 28.5276 103.225 28.6276C103.1 28.6226 102.975 28.6176 102.855 28.6076C102.61 28.4176 102.35 28.2426 102.13 28.0326C101.94 27.8476 101.79 27.6176 101.63 27.4176C101.47 26.6776 101.575 26.0426 102.165 25.5426L102.17 25.5476ZM97.275 34.1026C98.28 32.1926 99.45 30.3976 101.025 28.8976C101.2 28.7276 101.41 28.5976 101.65 28.4076C101.755 28.5476 101.805 28.6076 101.86 28.6826C101.815 28.7826 101.785 28.8826 101.73 28.9676C100.525 30.8926 99.735 33.0326 98.64 35.0176C98.59 35.1076 98.51 35.1776 98.43 35.2726C97.97 35.3626 97.505 35.4826 97.165 35.0176C97.04 34.6776 97.125 34.3776 97.275 34.1026ZM78.67 25.0676C78.64 25.0476 78.61 25.0276 78.58 25.0076C78.58 25.0526 78.59 25.0926 78.59 25.1376V26.3476H50.33V24.9126C50.485 24.9026 50.64 24.8826 50.8 24.8826C59.825 24.8826 68.845 24.8826 77.87 24.8826C78.105 24.8826 78.345 24.9576 78.58 25.0026C78.61 25.0226 78.64 25.0426 78.67 25.0576V25.0676ZM62.49 13.0876C61.795 15.3726 61.095 17.6576 60.4 19.9426C60.195 20.6126 59.99 21.2826 59.805 21.9576C59.71 22.3026 59.505 22.5326 59.205 22.7126C58.635 23.0526 58.02 23.1826 57.36 23.1426C57.015 23.1226 56.715 22.9726 56.495 22.7126C56 22.1226 55.72 21.4676 56.1 20.7226C56.46 20.0276 56.845 19.3426 57.275 18.6876C58.595 16.7026 60.065 14.8326 61.68 13.0776C61.89 12.8476 62.1 12.6226 62.55 12.5576C62.525 12.7826 62.53 12.9426 62.485 13.0876H62.49ZM63.135 17.1626C63.41 16.0626 63.715 14.9676 64.015 13.8726C64.06 13.7026 64.17 13.5476 64.275 13.3376C64.69 13.5626 64.69 13.8976 64.73 14.1926C64.87 15.2376 64.98 16.2876 65.115 17.3376C65.25 18.3826 65.405 19.4276 65.545 20.4726C65.615 20.9876 65.675 21.4976 65.75 22.0126C65.805 22.3676 65.72 22.6726 65.445 22.9076C65.21 23.1126 64.985 23.3276 64.725 23.4926C64.15 23.8526 63.57 23.7776 63.035 23.4076C62.505 23.0426 62.25 22.5576 62.33 21.8676C62.51 20.2826 62.755 18.7076 63.14 17.1626H63.135ZM69.045 11.8326C69.975 12.4076 70.935 12.9476 71.825 13.5826C73.42 14.7326 74.945 15.9826 76.24 17.4776C77.015 18.3726 77.73 19.3026 78.28 20.3576C78.635 21.0376 78.655 21.6776 78.235 22.3476C77.99 22.7376 77.675 22.9626 77.245 22.9976C76.195 23.0826 75.29 22.8426 74.69 21.8576C73.41 19.7576 72.115 17.6726 70.81 15.5876C70.12 14.4826 69.405 13.3976 68.705 12.3026C68.62 12.1676 68.54 12.0276 68.455 11.8876C68.705 11.5726 68.885 11.7276 69.055 11.8326H69.045ZM69.225 15.5976C70.37 17.1426 71.49 18.7126 72.36 20.4326C72.465 20.6326 72.57 20.8376 72.645 21.0476C72.855 21.6376 72.595 22.5326 72.095 22.8926C71.935 23.0076 71.73 23.0976 71.53 23.1226C70.925 23.1976 70.33 23.0976 69.765 22.8826C69.345 22.7226 69.125 22.3626 68.99 21.9626C68.8 21.3976 68.64 20.8176 68.48 20.2426C67.9 18.1526 67.32 16.0626 66.74 13.9776C66.67 13.7176 66.55 13.4776 66.475 13.2176C66.415 13.0076 66.38 12.7926 66.33 12.5426C66.83 12.4676 67.01 12.7626 67.2 12.9926C67.89 13.8476 68.575 14.7076 69.23 15.5876L69.225 15.5976ZM64.225 4.00258C65.8 3.99758 67.125 5.30258 67.135 6.86758C67.145 8.43758 65.89 9.71258 64.325 9.72758C62.725 9.74258 61.365 8.45258 61.37 6.92258C61.37 5.33758 62.675 4.00758 64.225 4.00258ZM50.385 20.8376C50.74 19.9876 51.245 19.2376 51.805 18.5176C53.29 16.6076 55.01 14.9326 56.995 13.5526C57.925 12.9076 58.925 12.3576 59.895 11.7676C60.015 11.6926 60.155 11.6476 60.285 11.5926L60.405 11.6876C60.35 11.8276 60.32 11.9826 60.24 12.1126C58.265 15.2876 56.28 18.4576 54.3 21.6326C54.235 21.7376 54.17 21.8426 54.1 21.9476C53.54 22.7826 52.43 23.2276 51.455 23.0226C50.605 22.8426 50.035 21.6876 50.385 20.8476V20.8376ZM35.51 17.8676C35.965 17.7176 37.25 17.7476 37.78 17.9376C37.78 18.7576 37.775 19.5826 37.78 20.4076C37.78 20.6926 37.825 20.9826 37.85 21.2676C37.895 21.2926 37.945 21.3126 37.99 21.3376C38.67 21.3226 39.35 21.3076 40.09 21.2876C40.125 21.0476 40.175 20.8576 40.175 20.6626C40.165 19.9376 40.135 19.2176 40.125 18.4926C40.125 18.2726 40.175 18.0526 40.205 17.8076H42.755C42.895 18.0676 42.8 18.3576 42.795 18.6376C42.775 19.3226 42.745 20.0026 42.735 20.6876C42.735 20.8626 42.79 21.0426 42.82 21.2376H45.295C45.31 21.0226 45.345 20.8026 45.345 20.5876C45.345 19.7976 45.33 19.0126 45.32 18.2226C45.32 18.0826 45.32 17.9426 45.32 17.7726H47.76V23.3526H46.115C46.115 24.0476 46.115 24.6676 46.115 25.2876C46.115 26.8626 46.105 28.4376 46.11 30.0126C46.11 30.2076 46.17 30.4076 46.2 30.6026C46.28 30.6326 46.365 30.6626 46.445 30.6926H52.825C52.975 30.0976 52.855 29.5176 52.87 28.9476C52.885 28.3676 52.87 27.7876 52.87 27.1226C53.1 27.0976 53.4 27.0276 53.695 27.0276C60.665 27.0276 67.64 27.0276 74.61 27.0276C74.815 27.0276 75.02 27.0276 75.245 27.0276C75.48 27.6326 75.315 28.2126 75.345 28.7826C75.375 29.3576 75.35 29.9376 75.35 30.5976C75.555 30.6326 75.79 30.7026 76.025 30.7026C78.185 30.7126 80.34 30.7126 82.5 30.7076C82.785 30.7076 83.07 30.6576 83.395 30.6276V23.4476C82.825 23.3876 82.3 23.3326 81.775 23.2776C81.75 23.2226 81.725 23.1726 81.7 23.1176C81.7 23.0426 81.7 22.9676 81.7 22.8926C81.7 22.8426 81.705 22.7926 81.71 22.7476V17.7776C82.54 17.7126 83.33 17.7576 84.18 17.7426V21.1026C84.64 21.2876 85.69 21.3326 86.74 21.2176C86.945 20.6926 86.795 20.1326 86.81 19.5876C86.825 19.0326 86.785 18.4726 86.765 17.9126C86.775 17.8726 86.78 17.8326 86.79 17.7926H89.385C89.45 18.9226 89.365 20.0326 89.405 21.1376C89.44 21.1876 89.47 21.2326 89.505 21.2826C89.545 21.2926 89.585 21.3076 89.625 21.3176C89.68 21.3176 89.735 21.3076 89.79 21.3026C90.415 21.2476 91.05 21.4326 91.755 21.2876V17.9376C92.165 17.7476 92.83 17.7076 94 17.8076C94.035 17.8876 94.07 17.9626 94.105 18.0426C94.08 19.8126 94.06 21.5776 94.035 23.4026H92.285C92.285 23.7626 92.285 24.0676 92.285 24.3726C92.285 27.0176 92.295 29.6676 92.29 32.3176C92.29 32.5076 92.385 32.7376 92.145 32.8726L92 32.8876C91.045 32.8826 90.09 32.8926 89.14 32.8676C88.4 32.8476 87.735 33.0026 87.06 33.3476C84.235 34.8026 81.38 36.2076 78.535 37.6276C77.72 38.0326 76.905 38.4276 76.09 38.8376C75.835 38.9676 75.595 39.1276 75.33 39.2826C75.33 40.6226 75.415 41.9426 75.33 43.2926H73.855V48.7626H70.34V43.3826C69.52 43.2076 66.63 43.2226 65.94 43.3976V48.7726C65.35 48.8226 64.8 48.7876 64.245 48.7926C63.705 48.7976 63.165 48.7926 62.625 48.7926C62.58 48.7576 62.535 48.7176 62.495 48.6826C62.495 47.1276 62.49 45.5776 62.485 44.0226C62.485 43.8026 62.485 43.5776 62.485 43.3676C61.67 43.2026 59.03 43.1876 58.095 43.3476C58.095 43.9226 58.095 44.5076 58.095 45.0976C58.095 45.7176 58.095 46.3376 58.065 46.9576C58.035 47.5476 58.215 48.1476 58.03 48.7626H54.675C54.66 48.5926 54.635 48.4176 54.635 48.2426C54.635 46.8576 54.635 45.4676 54.635 44.0826C54.635 43.8426 54.61 43.5976 54.6 43.3476C53.985 43.2926 53.435 43.2426 52.875 43.1926V38.8526C52.86 38.7976 52.845 38.7376 52.83 38.6826C52.81 38.6026 52.79 38.5226 52.78 38.4826C51.455 37.8326 50.16 37.1976 48.865 36.5576C46.59 35.4226 44.325 34.2726 42.045 33.1576C41.685 32.9826 41.255 32.8926 40.855 32.8776C39.86 32.8426 38.865 32.8776 37.87 32.8776C37.685 32.8776 37.505 32.8776 37.305 32.8776C37.275 32.7676 37.235 32.6876 37.235 32.6126C37.245 29.6876 37.255 26.7626 37.27 23.8376C37.27 23.7776 37.285 23.7126 37.29 23.6526C37.265 23.5676 37.235 23.4876 37.21 23.4026C36.66 23.3476 36.095 23.4576 35.51 23.2876V17.8626V17.8676ZM32.345 34.6726C32.345 34.6726 32.345 34.7126 32.355 34.7526C32.27 35.3026 31.84 35.3626 31.39 35.3926C31.34 35.3826 31.295 35.3726 31.245 35.3626C30.845 35.2276 30.585 34.9326 30.43 34.5626C29.61 32.5826 28.665 30.6626 27.575 28.8126C27.565 28.7976 27.57 28.7726 27.57 28.7526C27.555 28.6476 27.535 28.5376 27.51 28.3526C27.645 28.4326 27.705 28.4676 27.765 28.5026C27.91 28.5776 28.08 28.6226 28.19 28.7276C29.95 30.4426 31.46 32.3426 32.345 34.6726ZM25.765 29.3676C25.74 29.3776 25.71 29.3876 25.685 29.3976C25.675 29.5526 25.665 29.7126 25.655 29.8676C25.635 29.9376 25.615 30.0076 25.59 30.0826C25.575 30.1376 25.56 30.1926 25.54 30.2526C25.435 30.6676 25.325 31.0826 25.23 31.5026C25.14 31.9026 25.065 32.3076 24.985 32.7126C24.97 32.7676 24.955 32.8226 24.94 32.8826C24.88 33.1626 24.82 33.4426 24.765 33.7226L24.73 33.8826C24.63 34.3426 24.53 34.8026 24.43 35.2526C23.87 35.5176 23.36 35.5276 22.84 35.3076C22.715 34.8876 22.765 34.4926 22.935 34.1426C23.695 32.5476 24.485 30.9626 25.26 29.3726C25.295 29.3226 25.33 29.2776 25.365 29.2276H25.37C25.525 28.9676 25.655 29.1226 25.785 29.2476L25.765 29.3776V29.3676ZM25.41 33.7326C25.415 33.6776 25.42 33.6226 25.43 33.5676C25.57 32.4926 25.705 31.4176 25.855 30.3426C25.9 30.0176 25.99 29.7026 26.06 29.3826C26.17 29.3726 26.275 29.3576 26.385 29.3476C26.43 29.3576 26.475 29.3676 26.515 29.3726C26.515 29.4876 26.525 29.6076 26.53 29.7226C26.555 30.0176 26.575 30.3126 26.6 30.6026C26.48 30.6976 26.485 30.7876 26.605 30.8726C26.66 31.3226 26.715 31.7776 26.77 32.2276C26.795 32.2476 26.815 32.2726 26.84 32.2926C26.82 32.3176 26.805 32.3426 26.785 32.3676C26.895 33.1226 27.02 33.8776 27.11 34.6376C27.135 34.8526 27.06 35.0776 27.025 35.3276C26.645 35.4476 26.3 35.5576 25.955 35.6676C25.745 35.5276 25.58 35.4176 25.41 35.3026V33.7276V33.7326ZM27 30.1226C26.99 30.0826 26.99 30.0426 26.99 29.9976C26.925 29.9026 26.86 29.8076 26.795 29.7126C26.78 29.6426 26.76 29.5726 26.745 29.5026C26.67 29.4576 26.59 29.4076 26.515 29.3626C26.47 29.3276 26.425 29.2926 26.385 29.2576L26.355 29.0076C26.375 28.9676 26.395 28.9276 26.415 28.8876C26.66 28.8376 26.915 28.7676 27.025 29.0976C27.2 29.3476 27.375 29.5976 27.55 29.8476C27.73 30.1626 27.93 30.4726 28.09 30.7976C28.585 31.8176 29.075 32.8376 29.55 33.8626C29.68 34.1426 29.775 34.4376 29.895 34.7526C29.805 34.9276 29.715 35.1076 29.62 35.3026H28.36C28.09 35.1626 27.945 34.8776 27.895 34.5376C27.68 33.0476 27.415 31.5676 27 30.1176V30.1226ZM24.46 26.6926C24.6 25.7176 25.365 25.1526 26.12 25.1526C27 25.1526 27.87 25.9476 27.88 26.8226C27.885 27.4076 27.535 27.8276 27.11 28.1726C26.875 28.3626 26.58 28.4826 26.36 28.6076C25.05 28.3676 24.615 27.9776 24.45 26.9426C24.45 26.8626 24.45 26.7776 24.455 26.6976L24.46 26.6926ZM20.5 34.0776C21.08 33.1276 21.655 32.1776 22.27 31.2476C22.87 30.3376 23.625 29.5476 24.395 28.7826C24.5 28.6776 24.645 28.6176 24.84 28.4926C24.86 28.6876 24.87 28.7826 24.88 28.8776C24.88 28.9176 24.88 28.9576 24.88 28.9976C24.84 29.1076 24.815 29.2326 24.755 29.3326C23.85 30.8326 23.11 32.4176 22.375 34.0026C22.17 34.4476 21.925 34.8776 21.7 35.3226H20.435C20.205 34.8876 20.265 34.4676 20.5 34.0776ZM20.41 36.9776C20.38 36.8876 20.35 36.7976 20.32 36.7076C20.355 36.5526 20.395 36.4026 20.445 36.1826C21.16 36.1526 21.835 36.1126 22.515 36.0976C23.155 36.0826 23.8 36.0976 24.44 36.0976C26.74 36.0976 29.035 36.0976 31.335 36.1026C31.625 36.1026 31.915 36.1026 32.15 36.3076C32.31 36.9576 32.165 37.1826 31.56 37.2176C31.355 37.2276 31.145 37.2276 30.94 37.2276C27.85 37.2276 24.76 37.2376 21.67 37.2376C21.38 37.2376 21.085 37.2476 20.8 37.2076C20.66 37.1876 20.535 37.0576 20.405 36.9726L20.41 36.9776ZM42.135 78.9926C39.955 77.1376 37.765 75.2926 35.595 73.4276C31.49 69.8976 27.395 66.3576 23.3 62.8226C22.705 62.3076 22.105 61.7926 21.505 61.2826C21.01 60.8676 20.815 60.3426 20.815 59.6976C20.825 53.2226 20.815 46.7476 20.815 40.2726C20.815 40.1276 20.84 39.9826 20.85 39.8426C20.865 39.7876 20.88 39.7376 20.9 39.6826C21.13 39.0476 21.68 38.7626 22.25 38.6026C22.94 38.4076 23.665 38.2926 24.38 38.2126C25.825 38.0526 27.275 38.0426 28.725 38.2026C29.255 38.2626 29.79 38.3476 30.31 38.4776C30.625 38.5576 30.92 38.7226 31.205 38.8876C31.73 39.1926 31.995 39.6576 31.985 40.2726C31.97 41.0626 31.97 41.8476 31.965 42.6376C31.95 44.1276 31.93 45.6226 31.93 47.1126C31.93 47.8176 32 48.5226 31.995 49.2226C31.995 49.8826 31.93 50.5426 31.9 51.2026C31.895 51.3476 31.9 51.4876 31.9 51.6826C32.325 51.4376 32.595 51.1026 32.88 50.7776C34.075 49.4176 34.99 47.8626 35.915 46.3226C36.705 45.0126 37.49 43.6976 38.31 42.4076C38.645 41.8776 38.8 41.3376 38.785 40.7126C38.77 40.0276 38.805 39.3476 38.825 38.6626C38.835 38.1976 38.76 37.7776 38.465 37.3826C37.625 36.2576 38.555 35.1776 39.515 35.0026C39.885 34.9326 40.215 35.0576 40.515 35.2476C41.19 35.6676 41.435 36.4676 41.095 37.1726C40.92 37.5376 40.82 37.9026 40.82 38.3026C40.82 39.2926 40.82 40.2876 40.82 41.2576C44.455 45.0876 48.065 48.8876 51.675 52.6876C51.725 52.7026 51.775 52.7226 51.825 52.7376C51.825 50.4676 51.815 48.1976 51.81 45.9326C51.81 45.7276 51.825 45.5226 51.835 45.3176C51.87 45.2876 51.905 45.2576 51.94 45.2226C52.52 45.2226 53.105 45.0926 53.67 45.3176L53.74 45.4526C53.665 47.2126 53.7 48.9676 53.725 50.7576H59C59.07 50.1526 59.015 49.5376 59.025 48.9276C59.03 48.3276 59.03 47.7226 59.03 47.1226C59.03 46.5076 59.03 45.8926 59.03 45.2376H61.535V50.7576H66.85C66.87 50.4976 66.915 50.2376 66.91 49.9726C66.91 48.5226 66.89 47.0676 66.88 45.6176C66.88 45.5176 66.9 45.4176 66.91 45.3226C67.34 45.1626 68.545 45.1276 69.38 45.2676C69.38 46.1576 69.38 47.0576 69.38 47.9626C69.38 48.8676 69.38 49.7826 69.38 50.6826C69.865 50.8126 73.445 50.8526 74.705 50.7476C74.825 48.9426 74.815 47.1276 74.725 45.2976C74.83 45.2626 74.91 45.2176 74.985 45.2126C75.71 45.2026 76.435 45.1926 77.16 45.2026C77.295 45.2026 77.43 45.2776 77.57 45.3126C77.605 45.3576 77.635 45.4026 77.67 45.4476C77.665 47.2876 77.66 49.1276 77.65 50.9676C77.65 51.4826 77.625 51.9976 77.61 52.5126C77.635 52.5576 77.655 52.6026 77.68 52.6526C77.74 52.6176 77.795 52.5826 77.855 52.5476C78.22 52.1826 78.59 51.8176 78.945 51.4476C81.39 48.9076 83.83 46.3576 86.275 43.8226C87.095 42.9726 87.94 42.1476 88.76 41.3226C88.76 40.8526 88.76 40.4426 88.76 40.0276C88.76 39.5076 88.72 38.9876 88.745 38.4726C88.77 37.9826 88.725 37.5126 88.455 37.1026C88.035 36.4626 88.505 35.5326 89.185 35.1726C89.87 34.8076 90.675 34.9926 91.105 35.6376C91.48 36.2026 91.59 36.7826 91.13 37.3576C90.845 37.7176 90.76 38.1126 90.785 38.5726C90.825 39.3776 90.78 40.1926 90.81 40.9976C90.82 41.2976 90.875 41.6326 91.025 41.8876C92.435 44.2526 93.845 46.6126 95.31 48.9426C95.935 49.9376 96.71 50.8276 97.615 51.7476C97.63 51.5426 97.645 51.4376 97.645 51.3326C97.645 51.1026 97.63 50.8776 97.63 50.6476C97.63 47.2226 97.63 43.7976 97.63 40.3776C97.63 39.3976 97.975 38.8776 98.915 38.5976C99.525 38.4126 100.16 38.2976 100.795 38.2126C102.41 37.9926 104.025 38.1026 105.64 38.2326C106.21 38.2776 106.78 38.4376 107.335 38.5876C107.61 38.6626 107.865 38.8176 108.11 38.9626C108.555 39.2276 108.755 39.6176 108.74 40.1526C108.71 41.5226 108.72 42.8926 108.72 44.2626C108.72 49.4926 108.72 54.7226 108.73 59.9476C108.73 60.4226 108.59 60.7976 108.25 61.1076C107.915 61.4176 107.575 61.7226 107.23 62.0176C103.755 65.0076 100.28 67.9976 96.8 70.9776C94.06 73.3276 91.3 75.6526 88.57 78.0076C85.49 80.6626 82.43 83.3376 79.36 86.0026C78.795 86.4926 78.24 86.9876 77.65 87.4476C77.285 87.7326 77.145 88.0776 77.155 88.5226C77.165 88.9976 77.155 89.4676 77.155 90.0176C76.84 90.0426 76.54 90.0926 76.245 90.0926C74.835 90.0926 73.425 90.0826 72.01 90.0776C71.35 90.0776 70.685 90.0776 70.005 90.0776C70.14 89.8076 70.27 89.5326 70.41 89.2576C71.285 87.5626 71.75 85.7526 71.98 83.8726C72.21 82.0126 72.275 80.1526 72.17 78.2826C72.13 77.5626 72.055 76.8426 71.995 76.0976C70.99 75.8026 69.985 76.1676 68.985 75.9576C68.945 74.2726 68.605 72.7276 67.245 71.5976C66.25 70.7776 65.09 70.5076 63.825 70.5276C62.91 70.5426 62.07 70.7926 61.29 71.2626C60.51 71.7276 60.015 72.4376 59.665 73.2526C59.31 74.0776 59.19 74.9576 59.24 75.9226C58.45 75.9626 57.72 75.9926 56.945 76.0326C56.89 76.6476 56.815 77.1926 56.795 77.7476C56.725 79.6326 56.685 81.5276 56.92 83.4026C57.205 85.6326 57.73 87.7926 58.875 89.7626C58.925 89.8526 58.965 89.9476 59.035 90.0926H52.25C52.095 89.6876 52.195 89.2976 52.195 88.9126C52.195 88.5226 52.195 88.1276 52.195 87.6826C50.725 86.3876 49.205 85.0376 47.67 83.7126C45.835 82.1276 43.98 80.5626 42.13 78.9876L42.135 78.9926ZM59.075 84.2776C58.975 83.5476 58.885 82.8576 58.795 82.1926C58.825 82.1476 58.83 82.1276 58.845 82.1176C58.86 82.1026 58.875 82.0826 58.895 82.0826C59.31 82.0676 59.72 82.0426 60.135 82.0426C63.385 82.0426 66.64 82.0476 69.89 82.0576C69.945 82.0576 70 82.1026 70.115 82.1426C70.115 82.8476 70.015 83.5476 69.88 84.2826H59.08L59.075 84.2776ZM69.36 86.6726C69.335 86.8176 69.33 86.9476 69.285 87.0726C68.93 88.1676 68.405 89.1626 67.59 89.9926C66.86 90.7426 65.975 91.1076 64.93 91.1426C63.98 91.1726 63.075 91.0276 62.25 90.5426C62.075 90.4376 61.89 90.3326 61.735 90.2026C60.755 89.3626 59.94 88.0076 59.615 86.6726H69.355H69.36ZM58.78 78.1276C59.05 78.1076 59.31 78.0726 59.565 78.0726C62.3 78.0626 65.03 78.0576 67.765 78.0526C68.345 78.0526 68.925 78.0526 69.505 78.0726C69.705 78.0776 69.9 78.1526 70.095 78.1976C70.11 78.2426 70.125 78.2826 70.14 78.3276V79.6526H58.825C58.725 79.1876 58.795 78.7026 58.785 78.1326L58.78 78.1276ZM124.245 114.313C123.77 115.758 122.67 116.368 121.245 116.528C120.16 116.653 119.09 116.488 118.04 116.248C114.715 115.493 111.395 114.708 108.07 113.953C105.45 113.358 102.82 112.808 100.2 112.208C97.4 111.568 94.61 110.883 91.81 110.243C90.9 110.033 89.995 109.838 89.145 109.443C88.325 109.063 87.625 108.538 87.07 107.803C86.785 107.423 86.68 106.993 86.555 106.558C86.515 106.518 86.47 106.473 86.43 106.433C85.745 106.213 85.065 105.978 84.375 105.783C80.715 104.748 77.06 103.718 73.395 102.698C70.85 101.988 68.295 101.298 65.745 100.598C65.605 100.558 65.46 100.533 65.33 100.473C64.925 100.303 64.535 100.348 64.115 100.458C62.3 100.948 60.48 101.418 58.66 101.883C54.575 102.933 50.495 103.978 46.41 105.013C44.93 105.388 43.44 105.738 41.955 106.098C41.92 106.108 41.885 106.143 41.82 106.193C41.8 106.233 41.745 106.298 41.73 106.378C41.415 107.818 40.425 108.683 39.21 109.353C38.15 109.938 36.99 110.238 35.845 110.583C32.09 111.713 28.335 112.853 24.575 113.983C20.46 115.218 16.35 116.453 12.235 117.688C11.145 118.013 10.055 118.323 8.92 118.458C8.255 118.538 7.59 118.518 6.945 118.353C6.08 118.138 5.43 117.608 4.975 116.848C4.36 115.823 3.97 114.718 3.805 113.538C3.71 112.833 3.915 112.183 4.33 111.608C4.75 111.028 5.28 110.573 5.91 110.228C7.08 109.588 8.335 109.183 9.605 108.808C12.575 107.928 15.555 107.073 18.52 106.183C23.13 104.803 27.73 103.393 32.335 102.008C33.48 101.663 34.625 101.298 35.795 101.038C36.85 100.803 37.935 100.808 38.995 101.108C39.665 101.298 40.205 101.633 40.515 102.278C40.57 102.388 40.65 102.483 40.72 102.588C40.75 102.633 40.78 102.678 40.805 102.723C40.88 102.743 40.965 102.793 41.03 102.778C43.335 102.193 45.635 101.603 47.94 101.018C50.745 100.308 53.55 99.5976 56.355 98.8926C56.815 98.7776 57.28 98.6976 57.785 98.5926C57.625 98.2876 57.375 98.2626 57.15 98.2026C55.95 97.8876 54.75 97.5926 53.555 97.2626C51.545 96.7076 49.54 96.1276 47.53 95.5676C46.115 95.1726 44.7 94.7926 43.285 94.4026C43.205 94.3826 43.125 94.3776 43.015 94.3576C42.91 94.4326 42.775 94.4976 42.685 94.6026C41.87 95.4926 40.81 95.7726 39.665 95.8326C38.6 95.8876 37.565 95.6926 36.535 95.4476C33.84 94.8076 31.145 94.1576 28.45 93.5376C25.41 92.8376 22.355 92.1776 19.315 91.4876C16.735 90.9026 14.16 90.2976 11.58 89.7076C10.855 89.5426 10.12 89.4076 9.4 89.2226C8.51 88.9926 7.675 88.6276 6.96 88.0376C5.98 87.2226 5.56 86.1526 5.665 84.8976C5.72 84.2426 5.845 83.5826 5.99 82.9426C6.475 80.8076 7.78 80.2776 9.38 80.1776C10.545 80.1076 11.695 80.3326 12.825 80.5826C16.195 81.3376 19.56 82.1076 22.92 82.8826C26.245 83.6476 29.565 84.4326 32.885 85.1926C35.22 85.7276 37.57 86.2226 39.905 86.7676C41.095 87.0476 42.135 87.6376 42.98 88.5426C43.51 89.1076 43.865 89.7326 43.81 90.5426C43.8 90.6576 43.845 90.7776 43.875 90.9426C44.135 91.0126 44.395 91.0776 44.65 91.1476C48.515 92.2176 52.375 93.2876 56.24 94.3526C58.65 95.0176 61.055 95.6826 63.465 96.3476C63.485 96.3526 63.51 96.3476 63.525 96.3626C64.41 96.8326 65.29 96.6726 66.21 96.4126C68.38 95.8076 70.565 95.2576 72.745 94.7026C74.685 94.2076 76.635 93.7276 78.575 93.2376C80.38 92.7826 82.18 92.3176 83.98 91.8576C84.16 91.8126 84.335 91.7576 84.565 91.6926C84.565 91.5326 84.585 91.3726 84.565 91.2176C84.485 90.6926 84.655 90.2376 84.945 89.8126C85.46 89.0626 86.09 88.4226 86.915 88.0476C87.85 87.6176 88.81 87.2226 89.795 86.9176C92.555 86.0626 95.34 85.2676 98.11 84.4426C102.225 83.2126 106.34 81.9726 110.45 80.7326C112.23 80.1976 114.005 79.6476 115.785 79.1126C116.605 78.8676 117.445 78.7526 118.3 78.7976C119.61 78.8626 120.645 79.4126 121.32 80.5676C121.88 81.5226 122.25 82.5526 122.4 83.6476C122.585 85.0026 121.96 86.0026 120.895 86.7776C119.945 87.4726 118.85 87.8526 117.74 88.1876C114.99 89.0176 112.24 89.8376 109.49 90.6576C105.885 91.7276 102.275 92.7776 98.675 93.8526C96.595 94.4726 94.53 95.1376 92.455 95.7526C91.465 96.0476 90.47 96.3276 89.435 96.4226C88.485 96.5076 87.575 96.4176 86.71 95.9976C86.22 95.7576 86.22 95.7676 85.675 95.1176C85.545 95.1176 85.395 95.0876 85.26 95.1176C81.655 96.0376 78.055 96.9726 74.45 97.8876C73.77 98.0626 73.075 98.1776 72.39 98.3276C72.2 98.3726 72.015 98.4526 71.805 98.5176C71.955 98.8376 72.225 98.8576 72.45 98.9026C75.63 99.5626 78.715 100.573 81.85 101.403C83.49 101.838 85.115 102.303 86.75 102.753C86.905 102.793 87.065 102.818 87.23 102.853C87.31 102.743 87.385 102.668 87.43 102.573C87.985 101.423 89.03 101.068 90.18 100.953C91.53 100.813 92.86 101.008 94.18 101.328C97.095 102.028 100.015 102.698 102.935 103.373C106.78 104.258 110.63 105.138 114.48 106.018C116.01 106.368 117.545 106.713 119.075 107.068C119.92 107.263 120.765 107.453 121.6 107.693C122.41 107.928 123.095 108.383 123.7 108.978C124.37 109.638 124.73 110.443 124.735 111.368C124.735 112.363 124.59 113.353 124.275 114.303L124.245 114.313ZM127.81 113.083C127.78 113.023 127.765 112.963 127.755 112.913C127.76 112.968 127.78 113.023 127.81 113.083ZM127.775 110.418C127.775 110.298 127.77 110.173 127.765 110.053C127.75 110.013 127.745 109.978 127.755 109.938C127.79 109.953 127.82 109.973 127.855 109.988C127.825 110.008 127.795 110.033 127.765 110.053C127.765 110.173 127.77 110.298 127.775 110.418Z" fill="white"/>
<path id="Vector_3" d="M52.2749 75.3426C52.2749 75.3026 52.2649 75.2576 52.2599 75.1926C52.1949 75.3026 52.1649 75.3476 52.1399 75.3926C51.9249 75.5876 51.6899 75.7626 51.5049 75.9826C50.9399 76.6476 50.3999 77.3276 49.8449 77.9976C49.5349 78.3726 49.2099 78.7376 48.9199 79.0676C49.8499 79.9126 50.7399 80.7176 51.6299 81.5176C51.7499 81.6276 51.8999 81.7026 52.0399 81.7926C52.0999 81.8326 52.1599 81.8726 52.2149 81.9076C52.2349 81.8626 52.2499 81.8176 52.2699 81.7726C52.2599 81.4926 52.2549 81.2176 52.2449 80.9376C52.2349 80.8826 52.2249 80.8226 52.2149 80.7676C52.2149 79.2476 52.2149 77.7276 52.2099 76.2026C52.2199 76.1476 52.2249 76.0876 52.2349 76.0326C52.2549 75.8326 52.2699 75.6376 52.2899 75.4376C52.2899 75.4076 52.2849 75.3776 52.2799 75.3376L52.2749 75.3426Z" fill="white"/>
<path id="Vector_4" d="M37.2151 23.4026C37.2401 23.4876 37.2701 23.5676 37.2951 23.6526C37.3901 23.5276 37.4301 23.4226 37.2151 23.4026Z" fill="white"/>
<path id="Vector_5" d="M26.8449 32.2925C26.8449 32.2925 26.7999 32.2475 26.7749 32.2275C26.7799 32.2725 26.7849 32.3225 26.7899 32.3675C26.8099 32.3425 26.8249 32.3175 26.8449 32.2925Z" fill="white"/>
<path id="Vector_6" d="M65.89 63.7326C65.88 64.4376 66.21 64.9126 66.855 65.1726C67.01 65.2326 67.16 65.3026 67.32 65.3426C68.38 65.6276 69.45 65.6676 70.52 65.4376C71.155 65.3026 71.75 65.0626 72.22 64.4826C72.235 64.2276 72.26 63.9776 72.26 63.7276C72.255 61.8376 72.25 59.9526 72.225 58.0626C72.225 57.6526 72.21 57.2276 72.1 56.8376C71.74 55.5326 70.44 54.5476 69.1 54.5476C68.06 54.5476 66.63 55.2326 66.13 56.7226C65.975 57.1826 65.915 57.6976 65.905 58.1876C65.87 59.4326 65.89 60.6776 65.885 61.9226C65.885 62.5226 65.895 63.1276 65.885 63.7276L65.89 63.7326Z" fill="white"/>
<path id="Vector_7" d="M57.6201 65.4626C57.9601 65.5476 58.3051 65.6276 58.6501 65.6726C59.6951 65.8176 60.7151 65.6826 61.6951 65.3026C62.3351 65.0526 62.6401 64.5676 62.6251 63.8476C62.5901 62.0476 62.5951 60.2426 62.5801 58.4376C62.5801 58.1076 62.5551 57.7726 62.5101 57.4476C62.3101 55.9376 60.8501 54.6426 59.3751 54.7176C57.4051 54.8176 56.2651 56.4526 56.2651 57.8326C56.2651 59.8826 56.2501 61.9326 56.2451 63.9876C56.2451 64.1926 56.2701 64.3976 56.2851 64.6026C56.7901 65.1526 57.0451 65.3226 57.6201 65.4676V65.4626Z" fill="white"/>
<path id="Vector_8" d="M89.3801 71.6575C86.7201 68.3975 84.0301 65.2375 81.2851 62.1075C80.6501 62.6775 80.0551 63.2175 79.3601 63.8425C82.0151 66.9725 84.6601 70.0925 87.3551 73.2675C88.1001 72.7975 88.6551 72.1625 89.3801 71.6575Z" fill="white"/>
<path id="Vector_9" d="M48.2751 62.0925C45.5751 65.2825 42.8651 68.4025 40.2251 71.6625C40.9551 72.1825 41.4751 72.8625 42.2651 73.2825C44.9151 70.1075 47.5301 66.9725 50.1351 63.8575C49.5001 63.2575 48.9201 62.7025 48.2801 62.0975L48.2751 62.0925Z" fill="white"/>
<path id="Vector_10" d="M77.1101 69.3225C77.0901 69.8575 77.2251 70.3225 77.5951 70.7425C79.2801 72.6825 80.9351 74.6425 82.6101 76.5925C82.7401 76.7425 82.8901 76.8775 83.0651 77.0525C83.7651 76.4325 84.4401 75.8375 85.1201 75.2325C84.6901 74.7425 84.2751 74.2825 83.8751 73.8125C81.6851 71.2475 79.5001 68.6775 77.3151 66.1075C77.2601 66.0425 77.2001 65.9775 77.0901 65.8525V66.2275C77.1151 66.9475 77.1451 67.6725 77.1601 68.3975C77.1651 68.7075 77.1301 69.0175 77.1201 69.3275L77.1101 69.3225Z" fill="white"/>
<path id="Vector_11" d="M52.1801 69.8376C52.1551 68.9676 52.1801 68.0976 52.1901 67.2276C52.1951 67.1776 52.2051 67.1276 52.2101 67.0726C52.2401 66.8326 52.2701 66.5926 52.3001 66.3176C51.7301 66.5926 50.5951 67.8776 48.3101 70.6826C47.0601 72.2176 45.7451 73.7076 44.4351 75.2476C45.1601 75.8476 45.8151 76.4976 46.6201 77.0526C46.8201 76.8376 47.0001 76.6676 47.1551 76.4826C48.7001 74.6476 50.2451 72.8026 51.7951 70.9726C52.0801 70.6376 52.1951 70.2826 52.1801 69.8376Z" fill="white"/>
<path id="Vector_12" d="M44.3651 58.6326C41.6551 61.8326 38.9451 65.0326 36.2451 68.2176C36.8201 68.7226 37.3601 69.1926 37.8951 69.6676C40.5751 66.4976 43.2651 63.3226 45.9451 60.1526C45.6301 59.6326 44.7951 58.8376 44.3601 58.6326H44.3651Z" fill="white"/>
<path id="Vector_13" d="M42.1499 56.3926C41.6299 55.9276 41.1599 55.5026 40.6049 55.0076C40.5499 55.1126 40.5249 55.1976 40.4699 55.2576C39.6249 56.2526 38.7799 57.2426 37.9349 58.2376C36.0699 60.4226 34.2049 62.6076 32.3049 64.8326C32.5699 65.0526 32.8399 65.2676 33.0999 65.5026C33.3699 65.7426 33.6299 65.9976 33.8799 66.2376C34.6749 65.3426 35.4499 64.5076 36.1799 63.6426C38.0999 61.3626 40.0049 59.0726 41.9099 56.7826C42.0099 56.6626 42.0699 56.5176 42.1449 56.3976L42.1499 56.3926Z" fill="white"/>
<path id="Vector_14" d="M85.51 62.3826C87.41 64.6326 89.32 66.8726 91.225 69.1176C91.37 69.2876 91.515 69.4626 91.68 69.6576C91.97 69.3876 92.25 69.1426 92.515 68.8876C92.775 68.6376 93.18 68.5426 93.315 68.1226C90.64 64.9776 87.965 61.8376 85.3 58.7076C84.98 58.6176 84.82 58.7926 84.68 59.0176C84.285 59.3426 83.84 59.6276 83.625 60.1326C83.74 60.2426 83.825 60.3226 83.91 60.4026C84.445 61.0626 84.965 61.7276 85.515 62.3726L85.51 62.3826Z" fill="white"/>
<path id="Vector_15" d="M87.5799 56.7076C90.0449 59.6126 92.5099 62.5126 94.9749 65.4126C95.1999 65.6776 95.4099 65.9526 95.6299 66.2276C96.1949 65.7476 96.7249 65.2926 97.2649 64.8326C96.7599 64.2476 96.2799 63.7126 95.8149 63.1626C93.5599 60.5176 91.3099 57.8676 89.0599 55.2226C89.0099 55.1976 88.9599 55.1676 88.9099 55.1426C88.8899 55.1126 88.8649 55.0826 88.8449 55.0526C88.8299 55.0826 88.8099 55.1176 88.7949 55.1476L87.5499 56.2676C87.4999 56.2826 87.4599 56.2976 87.4349 56.3176C87.3599 56.3776 87.3949 56.4526 87.4949 56.5426C87.5249 56.5976 87.5499 56.6576 87.5849 56.7026L87.5799 56.7076Z" fill="white"/>
<path id="Vector_16" d="M104.295 58.7976C104.715 59.3576 105.635 59.5376 106.34 59.2676C107.05 58.9976 107.285 58.5976 107.285 57.7026C107.28 56.4176 107.285 55.1326 107.28 53.8476C107.28 53.4526 107.255 53.0576 107.19 52.6726C107.04 51.7826 106.635 51.0776 105.675 50.8126C104.95 50.9676 104.56 51.4076 104.29 52.0126C104.07 52.4976 104.02 53.0126 104.015 53.5276C103.99 54.9976 103.98 56.4726 104.005 57.9426C104.005 58.2326 104.125 58.5676 104.295 58.7976Z" fill="white"/>
<path id="Vector_17" d="M30.48 41.9576C30.285 41.1626 29.905 40.4976 29.04 40.2576C28.98 40.2626 28.92 40.2676 28.86 40.2726C28.525 40.3426 28.23 40.4826 28.015 40.7576C27.64 41.2426 27.375 41.7626 27.38 42.3976C27.39 44.2426 27.39 46.0826 27.395 47.9276C27.395 48.0076 27.425 48.0876 27.44 48.1576C27.93 48.6626 28.515 48.8476 29.19 48.8076C30.115 48.7476 30.625 48.2126 30.62 47.2926C30.61 45.8826 30.61 44.4776 30.59 43.0676C30.585 42.6976 30.565 42.3176 30.475 41.9576H30.48Z" fill="white"/>
<path id="Vector_18" d="M25.5551 42.9676C25.5551 42.2726 25.4401 41.6076 25.0301 41.0226C24.3351 40.0276 23.4651 40.0426 22.8101 41.0526C22.4351 41.6326 22.3351 42.2776 22.3301 42.9526C22.3201 44.4226 22.3051 45.8976 22.3101 47.3676C22.3101 47.6726 22.3851 47.9776 22.4151 48.2376C23.1701 48.8276 23.9251 49.0276 24.7801 48.6576C25.2901 48.4376 25.5701 48.0776 25.5651 47.5126C25.5601 47.1176 25.5551 46.7226 25.5501 46.3326C25.5501 45.2126 25.5501 44.0926 25.5501 42.9726L25.5551 42.9676Z" fill="white"/>
<path id="Vector_19" d="M30.595 53.4076C30.575 52.6476 30.42 51.9226 29.87 51.3476C29.24 50.6926 28.435 50.7576 27.925 51.5176C27.595 52.0076 27.4 52.5476 27.395 53.1476C27.385 54.7876 27.375 56.4276 27.375 58.0626C27.375 58.7126 27.595 59.0276 28.185 59.2376C28.62 59.3926 29.07 59.4326 29.53 59.3076C30.345 59.0876 30.625 58.7326 30.625 57.8926C30.625 57.1676 30.625 56.4426 30.625 55.7126H30.6C30.6 54.9426 30.615 54.1776 30.6 53.4076H30.595Z" fill="white"/>
<path id="Vector_20" d="M25.4799 52.7826C25.4599 52.7276 25.4399 52.6726 25.4199 52.6226C25.3649 52.1076 25.1299 51.6776 24.7799 51.3076C24.2299 50.7276 23.5999 50.7226 23.0549 51.3026C22.6899 51.6876 22.4049 52.1326 22.3949 52.6726C22.3499 54.5326 22.3249 56.3976 22.3149 58.2626C22.3149 58.4526 22.4049 58.6726 22.5249 58.8276C22.9299 59.3526 23.8849 59.5626 24.5799 59.3076C25.2649 59.0526 25.5349 58.6426 25.5399 57.8176C25.5399 56.6976 25.5399 55.5826 25.5349 54.4626C25.5349 53.9026 25.4999 53.3476 25.4799 52.7876V52.7826Z" fill="white"/>
<path id="Vector_21" d="M104.945 48.7276C105.365 48.8576 105.795 48.8726 106.225 48.7176C106.995 48.4376 107.225 48.1626 107.235 47.3526C107.255 45.8376 107.25 44.3276 107.25 42.8126C107.25 42.6276 107.24 42.4376 107.2 42.2576C107.02 41.3726 106.68 40.5926 105.73 40.2726H105.565C105.085 40.3626 104.755 40.6576 104.505 41.0676C104.245 41.4976 104.075 41.9626 104.065 42.4726C104.035 44.1326 104 45.7876 103.985 47.4476C103.985 48.1426 104.28 48.5226 104.94 48.7326L104.945 48.7276Z" fill="white"/>
<path id="Vector_22" d="M99.3951 59.0426C99.5901 59.1976 99.8651 59.3026 100.23 59.3926C100.25 59.4176 100.27 59.4476 100.295 59.4776C100.32 59.4526 100.34 59.4276 100.365 59.4026C100.405 59.4026 100.45 59.4026 100.49 59.4026C101.785 59.3776 102.255 58.9026 102.23 57.6326C102.21 56.7026 102.17 55.7676 102.155 54.8376C102.145 54.3176 102.19 53.8026 102.18 53.2826C102.165 52.4726 101.95 51.7276 101.31 51.1676C100.88 50.7926 100.405 50.7676 99.9551 51.1176C99.7801 51.2526 99.6201 51.4326 99.4951 51.6176C99.1501 52.1276 98.9951 52.7026 98.9901 53.3176C98.9751 54.8126 98.9601 56.3026 98.9551 57.7976C98.9551 58.4126 99.0701 58.7926 99.3951 59.0476V59.0426Z" fill="white"/>
<path id="Vector_23" d="M101.655 48.5525C102.01 48.3725 102.185 48.1025 102.22 47.7275C102.24 47.5025 102.23 47.2725 102.225 47.0425C102.2 46.0475 102.165 45.0525 102.15 44.0575C102.145 43.6425 102.185 43.2275 102.185 42.8125C102.18 42.0225 101.985 41.2925 101.425 40.7025C100.885 40.1325 100.31 40.1325 99.7601 40.6975C99.6601 40.8025 99.5751 40.9225 99.4951 41.0425C99.1251 41.6175 98.9851 42.2575 98.9801 42.9325C98.9651 44.4075 98.9501 45.8775 98.9551 47.3525C98.9551 47.6725 99.0551 47.9925 99.0951 48.2525C99.9901 48.9325 100.79 48.9975 101.655 48.5525Z" fill="white"/>
<path id="Vector_24" d="M33.3149 58.9626C33.7499 58.4626 34.165 57.9476 34.59 57.4376C35.015 56.9326 35.445 56.4276 35.865 55.9176C36.29 55.4076 36.71 54.8976 37.13 54.3876C37.54 53.8826 38.05 53.4576 38.39 52.8726C38.035 52.5576 37.7349 52.2726 37.4199 52.0126C37.1099 51.7576 36.9 51.3626 36.48 51.2576C36.425 51.2926 36.38 51.3076 36.355 51.3376C34.98 52.9676 33.61 54.5976 32.23 56.2226C31.945 56.5626 31.81 56.9376 31.89 57.3676C32.02 58.0876 31.97 58.8076 31.895 59.5276C31.865 59.7926 31.895 60.0626 31.895 60.4276C32.545 60.0176 32.89 59.4426 33.32 58.9526L33.3149 58.9626Z" fill="white"/>
<path id="Vector_25" d="M92.575 54.5676C94.1 56.3726 95.62 58.1776 97.145 59.9826C97.285 60.1476 97.4 60.3526 97.64 60.3976V56.5376C96.05 54.6776 94.575 52.9526 93.08 51.1976C92.435 51.7726 91.825 52.3176 91.175 52.8976C91.3 53.0676 91.4 53.2176 91.515 53.3526C91.865 53.7626 92.23 54.1576 92.58 54.5676H92.575Z" fill="white"/>
<path id="Vector_26" d="M77.5001 75.3176C77.4201 75.2226 77.2851 75.1776 77.1201 75.0726V81.1576C77.1201 81.2026 77.1151 81.2476 77.1101 81.2926V82.1776C78.3501 81.1076 79.5001 80.1176 80.6401 79.1376C80.5951 79.0326 80.5801 78.9676 80.5451 78.9226C79.5351 77.7176 78.5201 76.5126 77.5001 75.3176Z" fill="white"/>
<path id="Vector_27" d="M67.6449 40.4776C68.5849 40.9076 69.5749 40.9076 70.5649 40.7526C70.9849 40.6876 71.3999 40.5276 71.7949 40.3576C72.3199 40.1326 72.5699 39.7176 72.5649 39.1326C72.5449 37.4326 72.5499 35.7326 72.5399 34.0326C72.5349 33.1526 72.2649 32.3676 71.6899 31.6926C70.5899 30.4026 68.8999 30.3026 67.7099 31.4976C67.0749 32.1326 66.7049 32.9026 66.6999 33.8276C66.6849 35.5876 66.6549 37.3476 66.6399 39.1076C66.6399 39.3526 66.6899 39.5976 66.7299 39.9476C67.0449 40.1326 67.3299 40.3326 67.6449 40.4776Z" fill="white"/>
<path id="Vector_28" d="M56.835 40.4376C58.24 40.9876 59.66 41.0126 61.06 40.4076C61.63 40.1626 61.915 39.7376 61.895 39.0926C61.87 38.2426 61.89 37.3926 61.89 36.5426H61.86C61.86 35.6526 61.895 34.7576 61.85 33.8676C61.785 32.4426 61.105 31.3976 59.78 30.8126C59.38 30.6376 58.955 30.5726 58.51 30.6826C57.26 30.9926 56.525 31.8326 56.165 33.0126C56.03 33.4576 56.025 33.9526 56.01 34.4226C55.975 35.9776 55.98 37.5326 55.94 39.0826C55.925 39.7576 56.24 40.2026 56.83 40.4326L56.835 40.4376Z" fill="white"/>
<path id="Vector_29" d="M75.3301 37.0526C75.3301 37.2276 75.3501 37.4026 75.3651 37.6026C75.5151 37.5826 75.6051 37.5876 75.6751 37.5576C79.1401 36.0076 82.6001 34.4526 86.0651 32.8976C86.1101 32.8776 86.1351 32.8176 86.1651 32.7776C86.1201 32.7276 86.0951 32.7026 86.0651 32.6726C86.0101 32.6676 85.9551 32.6626 85.9001 32.6576C85.8201 32.6676 85.7351 32.6876 85.6551 32.6876C83.0351 32.6776 80.4151 32.6626 77.7951 32.6626C77.0151 32.6626 76.2351 32.7026 75.4501 32.7226C75.4051 32.7576 75.3651 32.7926 75.3201 32.8276C75.3351 33.1976 75.3651 33.5726 75.3651 33.9426C75.3651 34.9776 75.3451 36.0176 75.3351 37.0526H75.3301Z" fill="white"/>
<path id="Vector_30" d="M43.8801 33.0976C45.2901 33.7326 46.7151 34.3426 48.1301 34.9676C49.6001 35.6176 51.0701 36.2776 52.5401 36.9326C52.6301 36.9726 52.7351 36.9676 52.8651 36.9926V33.3676C52.8701 33.3226 52.8751 33.2726 52.8851 33.2276C52.9051 33.0226 52.9551 32.8076 52.7201 32.6676H43.7351C43.6201 32.6076 43.5101 32.5876 43.4551 32.7476C43.4351 33.0526 43.7151 33.0376 43.8751 33.1076L43.8801 33.0976Z" fill="white"/>
</g>
<defs>
<clipPath id="clip0_13_54">
<rect width="128" height="121.16" fill="white" transform="translate(0 0.647583)"/>
</clipPath>
</defs>
</svg>
